<svg width="340" height="55" viewBox="0 0 1184 190" fill="none" xmlns="http://www.w3.org/2000/svg">
<path d="M242.145 7.16549V140.975H210.769V7.16549H242.145Z" fill="white"/>
<path d="M315.649 37.4871C327.637 37.4871 337.179 41.4015 344.274 49.2304C351.491 56.937 355.099 67.5794 355.099 81.1576V140.975H323.906V85.3779C323.906 78.5276 322.132 73.2064 318.585 69.4143C315.038 65.6221 310.267 63.7261 304.273 63.7261C298.279 63.7261 293.508 65.6221 289.961 69.4143C286.413 73.2064 284.639 78.5276 284.639 85.3779V140.975H253.263V38.588H284.639V52.1662C287.82 47.6402 292.101 44.0927 297.484 41.5238C302.866 38.8327 308.921 37.4871 315.649 37.4871Z" fill="white"/>
<path d="M361.49 89.5981C361.49 79.0781 363.447 69.8424 367.362 61.8912C371.398 53.94 376.842 47.8237 383.692 43.5422C390.543 39.2608 398.188 37.1201 406.629 37.1201C413.356 37.1201 419.473 38.5268 424.977 41.3403C430.604 44.1539 435.008 47.946 438.189 52.7167V0.19288H469.565V140.975H438.189V126.296C435.253 131.189 431.033 135.104 425.528 138.039C420.146 140.975 413.846 142.443 406.629 142.443C398.188 142.443 390.543 140.302 383.692 136.021C376.842 131.617 371.398 125.44 367.362 117.489C363.447 109.415 361.49 100.118 361.49 89.5981ZM438.189 89.7816C438.189 81.9527 435.987 75.7752 431.583 71.2492C427.302 66.7231 422.042 64.46 415.803 64.46C409.564 64.46 404.243 66.7231 399.839 71.2492C395.558 75.6529 393.417 81.7692 393.417 89.5981C393.417 97.427 395.558 103.666 399.839 108.314C404.243 112.84 409.564 115.103 415.803 115.103C422.042 115.103 427.302 112.84 431.583 108.314C435.987 103.788 438.189 97.6105 438.189 89.7816Z" fill="white"/>
<path d="M496.424 33.9456C490.92 33.9456 486.393 32.3554 482.846 29.1749C479.421 25.8721 477.708 21.8353 477.708 17.0646C477.708 12.1715 479.421 8.13471 482.846 4.95422C486.393 1.65141 490.92 0 496.424 0C501.807 0 506.21 1.65141 509.635 4.95422C513.183 8.13471 514.957 12.1715 514.957 17.0646C514.957 21.8353 513.183 25.8721 509.635 29.1749C506.21 32.3554 501.807 33.9456 496.424 33.9456ZM512.021 42.588V140.975H480.644V42.588H512.021Z" fill="white"/>
<path d="M620.877 88.1302C620.877 91.066 620.694 94.1242 620.327 97.3047H549.316C549.805 103.666 551.824 108.559 555.371 111.984C559.041 115.287 563.506 116.938 568.766 116.938C576.595 116.938 582.038 113.635 585.097 107.03H618.492C616.779 113.758 613.66 119.813 609.134 125.195C604.73 130.577 599.164 134.798 592.436 137.856C585.708 140.914 578.185 142.443 569.867 142.443C559.836 142.443 550.906 140.302 543.077 136.021C535.249 131.74 529.132 125.623 524.729 117.672C520.325 109.721 518.123 100.424 518.123 89.7816C518.123 79.1392 520.264 69.8424 524.545 61.8912C528.949 53.94 535.065 47.8237 542.894 43.5422C550.723 39.2608 559.714 37.1201 569.867 37.1201C579.775 37.1201 588.583 39.1996 596.289 43.3587C603.996 47.5178 609.99 53.4507 614.271 61.1572C618.675 68.8638 620.877 77.8548 620.877 88.1302ZM588.766 79.8732C588.766 74.4908 586.932 70.2094 583.262 67.0289C579.592 63.8484 575.005 62.2582 569.5 62.2582C564.24 62.2582 559.775 63.7873 556.105 66.8454C552.558 69.9036 550.356 74.2462 549.5 79.8732H588.766Z" fill="white"/>
<path d="M658.409 116.755H699.511V140.975H627.032V7.16549H658.409V116.755Z" fill="white"/>
<path d="M771.97 126.663C769.279 131.434 764.814 135.348 758.575 138.406C752.336 141.465 745.67 142.994 738.575 142.994C732.336 142.994 726.648 141.77 721.51 139.324C716.495 136.755 712.519 133.208 709.583 128.681C706.648 124.155 705.18 118.895 705.18 112.901C705.18 103.482 708.849 95.8368 716.189 89.9651C723.529 83.9711 734.477 80.9741 749.034 80.9741H771.97C771.725 75.3471 770.135 70.9433 767.199 67.7629C764.386 64.46 760.471 62.8086 755.456 62.8086C750.93 62.8086 747.199 63.9707 744.263 66.2949C741.327 68.6191 739.37 71.7996 738.391 75.8364H707.015C708.482 68.3745 711.418 61.7077 715.822 55.836C720.226 49.9644 725.853 45.3771 732.703 42.0743C739.676 38.6492 747.443 36.9366 756.006 36.9366C765.181 36.9366 773.377 38.7103 780.594 42.2578C787.811 45.8053 793.438 50.943 797.475 57.6709C801.512 64.2766 803.53 71.9831 803.53 80.7906V140.975H771.97V126.663ZM749.584 119.323C753.254 119.323 756.801 118.528 760.227 116.938C763.652 115.226 766.404 112.84 768.484 109.782C770.685 106.602 771.786 102.993 771.786 98.9561V97.6717H752.336C747.199 97.6717 743.345 98.7115 740.777 100.791C738.33 102.748 737.107 105.378 737.107 108.681C737.107 111.984 738.208 114.614 740.41 116.571C742.612 118.406 745.67 119.323 749.584 119.323Z" fill="white"/>
<path d="M914.354 38.588L850.132 189.6H816.37L839.857 137.489L798.205 38.588H833.251L856.921 102.626L880.408 38.588H914.354Z" fill="white"/>
<path d="M1009.37 88.1302C1009.37 91.066 1009.19 94.1242 1008.82 97.3047H937.81C938.299 103.666 940.318 108.559 943.865 111.984C947.535 115.287 952 116.938 957.26 116.938C965.089 116.938 970.532 113.635 973.591 107.03H1006.99C1005.27 113.758 1002.15 119.813 997.628 125.195C993.224 130.577 987.658 134.798 980.93 137.856C974.202 140.914 966.679 142.443 958.361 142.443C948.33 142.443 939.4 140.302 931.571 136.021C923.743 131.74 917.626 125.623 913.222 117.672C908.819 109.721 906.617 100.424 906.617 89.7816C906.617 79.1392 908.758 69.8424 913.039 61.8912C917.443 53.94 923.559 47.8237 931.388 43.5422C939.217 39.2608 948.208 37.1201 958.361 37.1201C968.269 37.1201 977.077 39.1996 984.783 43.3587C992.49 47.5178 998.484 53.4507 1002.77 61.1572C1007.17 68.8638 1009.37 77.8548 1009.37 88.1302ZM977.26 79.8732C977.26 74.4908 975.426 70.2094 971.756 67.0289C968.086 63.8484 963.499 62.2582 957.994 62.2582C952.734 62.2582 948.269 63.7873 944.599 66.8454C941.052 69.9036 938.85 74.2462 937.994 79.8732H977.26Z" fill="white"/>
<path d="M1048.13 55.6525C1051.8 50.0255 1056.38 45.6218 1061.89 42.4413C1067.39 39.1385 1073.51 37.4871 1080.24 37.4871V70.6987H1071.61C1063.78 70.6987 1057.91 72.4113 1054 75.8364C1050.08 79.1392 1048.13 85.0109 1048.13 93.4514V140.975H1016.75V38.588H1048.13V55.6525Z" fill="white"/>
<path d="M1133.09 19.0156V51.53C1133.09 55.3955 1134.09 58.3069 1136.09 60.2641C1138.15 62.2213 1140.99 63.1999 1144.61 63.1999C1148.28 63.1999 1151.12 62.2213 1153.12 60.2641C1155.18 58.3069 1156.21 55.3955 1156.21 51.53V19.0156H1164.57V51.3832C1164.57 55.5423 1163.67 59.0653 1161.86 61.9522C1160.05 64.8391 1157.62 66.9921 1154.59 68.4111C1151.56 69.83 1148.2 70.5395 1144.54 70.5395C1140.87 70.5395 1137.51 69.83 1134.48 68.4111C1131.5 66.9921 1129.12 64.8391 1127.36 61.9522C1125.6 59.0653 1124.72 55.5423 1124.72 51.3832V19.0156H1133.09Z" fill="#10B981"/>
<path d="M1183.83 19.0156V70.0258H1175.47V19.0156H1183.83Z" fill="#10B981"/>
<path d="M80.7355 147.637L8.47216 95.0819L80.7353 41.9793L152.999 95.0819L80.7355 147.637Z" stroke="url(#paint0_linear_0_1)" stroke-width="10"/>
<path d="M0 59.6282L80.7353 0.299805L161.471 59.6282L80.7355 118.345L0 59.6282Z" fill="#10B981"/>
<defs>
<linearGradient id="paint0_linear_0_1" x1="80.7354" y1="69" x2="80.7354" y2="140" gradientUnits="userSpaceOnUse">
<stop stop-color="#064E3B"/>
<stop offset="1" stop-color="#10B981"/>
</linearGradient>
</defs>
</svg>
