<svg width="340" height="55" viewBox="0 0 1184 190" fill="none" xmlns="http://www.w3.org/2000/svg">
<path d="M242.377 7.16549V140.975H211V7.16549H242.377Z" fill="#1E293B"/>
<path d="M315.881 37.4871C327.869 37.4871 337.41 41.4015 344.505 49.2304C351.722 56.937 355.331 67.5794 355.331 81.1576V140.975H324.138V85.3779C324.138 78.5276 322.364 73.2064 318.816 69.4143C315.269 65.6221 310.498 63.7261 304.504 63.7261C298.51 63.7261 293.74 65.6221 290.192 69.4143C286.645 73.2064 284.871 78.5276 284.871 85.3779V140.975H253.494V38.588H284.871V52.1662C288.051 47.6402 292.333 44.0927 297.715 41.5238C303.097 38.8327 309.153 37.4871 315.881 37.4871Z" fill="#1E293B"/>
<path d="M361.721 89.5981C361.721 79.0781 363.679 69.8424 367.593 61.8912C371.63 53.94 377.073 47.8237 383.924 43.5422C390.774 39.2608 398.419 37.1201 406.86 37.1201C413.588 37.1201 419.704 38.5268 425.209 41.3403C430.836 44.1539 435.24 47.946 438.42 52.7167V0.19288H469.797V140.975H438.42V126.296C435.484 131.189 431.264 135.104 425.759 138.039C420.377 140.975 414.077 142.443 406.86 142.443C398.419 142.443 390.774 140.302 383.924 136.021C377.073 131.617 371.63 125.44 367.593 117.489C363.679 109.415 361.721 100.118 361.721 89.5981ZM438.42 89.7816C438.42 81.9527 436.218 75.7752 431.815 71.2492C427.533 66.7231 422.273 64.46 416.034 64.46C409.796 64.46 404.475 66.7231 400.071 71.2492C395.789 75.6529 393.649 81.7692 393.649 89.5981C393.649 97.427 395.789 103.666 400.071 108.314C404.475 112.84 409.796 115.103 416.034 115.103C422.273 115.103 427.533 112.84 431.815 108.314C436.218 103.788 438.42 97.6105 438.42 89.7816Z" fill="#1E293B"/>
<path d="M496.656 33.9456C491.151 33.9456 486.625 32.3554 483.077 29.1749C479.652 25.8721 477.94 21.8353 477.94 17.0646C477.94 12.1715 479.652 8.13471 483.077 4.95422C486.625 1.65141 491.151 0 496.656 0C502.038 0 506.442 1.65141 509.867 4.95422C513.414 8.13471 515.188 12.1715 515.188 17.0646C515.188 21.8353 513.414 25.8721 509.867 29.1749C506.442 32.3554 502.038 33.9456 496.656 33.9456ZM512.252 42.588V140.975H480.876V42.588H512.252Z" fill="#1E293B"/>
<path d="M621.109 88.1302C621.109 91.066 620.925 94.1242 620.558 97.3047H549.548C550.037 103.666 552.055 108.559 555.603 111.984C559.273 115.287 563.737 116.938 568.997 116.938C576.826 116.938 582.27 113.635 585.328 107.03H618.723C617.011 113.758 613.891 119.813 609.365 125.195C604.961 130.577 599.396 134.798 592.668 137.856C585.94 140.914 578.417 142.443 570.098 142.443C560.068 142.443 551.138 140.302 543.309 136.021C535.48 131.74 529.364 125.623 524.96 117.672C520.556 109.721 518.354 100.424 518.354 89.7816C518.354 79.1392 520.495 69.8424 524.776 61.8912C529.18 53.94 535.297 47.8237 543.125 43.5422C550.954 39.2608 559.945 37.1201 570.098 37.1201C580.007 37.1201 588.814 39.1996 596.521 43.3587C604.228 47.5178 610.221 53.4507 614.503 61.1572C618.907 68.8638 621.109 77.8548 621.109 88.1302ZM588.998 79.8732C588.998 74.4908 587.163 70.2094 583.493 67.0289C579.823 63.8484 575.236 62.2582 569.731 62.2582C564.471 62.2582 560.006 63.7873 556.337 66.8454C552.789 69.9036 550.587 74.2462 549.731 79.8732H588.998Z" fill="#1E293B"/>
<path d="M658.64 116.755H699.742V140.975H627.264V7.16549H658.64V116.755Z" fill="#1E293B"/>
<path d="M772.201 126.663C769.51 131.434 765.045 135.348 758.807 138.406C752.568 141.465 745.901 142.994 738.806 142.994C732.568 142.994 726.879 141.77 721.742 139.324C716.726 136.755 712.751 133.208 709.815 128.681C706.879 124.155 705.411 118.895 705.411 112.901C705.411 103.482 709.081 95.8368 716.42 89.9651C723.76 83.9711 734.708 80.9741 749.265 80.9741H772.201C771.957 75.3471 770.366 70.9433 767.431 67.7629C764.617 64.46 760.703 62.8086 755.687 62.8086C751.161 62.8086 747.43 63.9707 744.494 66.2949C741.559 68.6191 739.601 71.7996 738.623 75.8364H707.246C708.714 68.3745 711.65 61.7077 716.053 55.836C720.457 49.9644 726.084 45.3771 732.935 42.0743C739.907 38.6492 747.675 36.9366 756.238 36.9366C765.412 36.9366 773.608 38.7103 780.825 42.2578C788.043 45.8053 793.67 50.943 797.706 57.6709C801.743 64.2766 803.762 71.9831 803.762 80.7906V140.975H772.201V126.663ZM749.816 119.323C753.485 119.323 757.033 118.528 760.458 116.938C763.883 115.226 766.635 112.84 768.715 109.782C770.917 106.602 772.018 102.993 772.018 98.9561V97.6717H752.568C747.43 97.6717 743.577 98.7115 741.008 100.791C738.562 102.748 737.338 105.378 737.338 108.681C737.338 111.984 738.439 114.614 740.641 116.571C742.843 118.406 745.901 119.323 749.816 119.323Z" fill="#1E293B"/>
<path d="M914.585 38.588L850.364 189.6H816.602L840.088 137.489L798.436 38.588H833.483L857.153 102.626L880.639 38.588H914.585Z" fill="#1E293B"/>
<path d="M1009.6 88.1302C1009.6 91.066 1009.42 94.1242 1009.05 97.3047H938.042C938.531 103.666 940.549 108.559 944.097 111.984C947.767 115.287 952.231 116.938 957.491 116.938C965.32 116.938 970.764 113.635 973.822 107.03H1007.22C1005.5 113.758 1002.39 119.813 997.859 125.195C993.456 130.577 987.89 134.798 981.162 137.856C974.434 140.914 966.911 142.443 958.592 142.443C948.562 142.443 939.632 140.302 931.803 136.021C923.974 131.74 917.858 125.623 913.454 117.672C909.05 109.721 906.848 100.424 906.848 89.7816C906.848 79.1392 908.989 69.8424 913.271 61.8912C917.674 53.94 923.791 47.8237 931.619 43.5422C939.448 39.2608 948.439 37.1201 958.592 37.1201C968.501 37.1201 977.308 39.1996 985.015 43.3587C992.721 47.5178 998.715 53.4507 1003 61.1572C1007.4 68.8638 1009.6 77.8548 1009.6 88.1302ZM977.492 79.8732C977.492 74.4908 975.657 70.2094 971.987 67.0289C968.317 63.8484 963.73 62.2582 958.225 62.2582C952.965 62.2582 948.5 63.7873 944.831 66.8454C941.283 69.9036 939.081 74.2462 938.225 79.8732H977.492Z" fill="#1E293B"/>
<path d="M1048.36 55.6525C1052.03 50.0255 1056.61 45.6218 1062.12 42.4413C1067.62 39.1385 1073.74 37.4871 1080.47 37.4871V70.6987H1071.84C1064.02 70.6987 1058.14 72.4113 1054.23 75.8364C1050.31 79.1392 1048.36 85.0109 1048.36 93.4514V140.975H1016.98V38.588H1048.36V55.6525Z" fill="#1E293B"/>
<path fill-rule="evenodd" clip-rule="evenodd" d="M0 95.1028L80.7355 153.82L161.471 95.1028L80.7353 35.7745L0 95.1028ZM16.9443 95.061L80.7355 141.455L144.527 95.061L80.7353 48.1842L16.9443 95.061Z" fill="url(#paint0_linear_0_1)"/>
<path d="M0 59.6282L80.7353 0.299805L161.471 59.6282L80.7355 118.345L0 59.6282Z" fill="#10B981"/>
<path d="M1133.09 19.0156V51.53C1133.09 55.3955 1134.09 58.3069 1136.09 60.2641C1138.15 62.2213 1140.99 63.1999 1144.61 63.1999C1148.28 63.1999 1151.12 62.2213 1153.12 60.2641C1155.18 58.3069 1156.21 55.3955 1156.21 51.53V19.0156H1164.57V51.3832C1164.57 55.5423 1163.67 59.0653 1161.86 61.9522C1160.05 64.8391 1157.62 66.9921 1154.59 68.4111C1151.56 69.83 1148.2 70.5395 1144.54 70.5395C1140.87 70.5395 1137.51 69.83 1134.48 68.4111C1131.5 66.9921 1129.12 64.8391 1127.36 61.9522C1125.6 59.0653 1124.72 55.5423 1124.72 51.3832V19.0156H1133.09Z" fill="#10B981"/>
<path d="M1183.83 19.0156V70.0258H1175.47V19.0156H1183.83Z" fill="#10B981"/>
<defs>
<linearGradient id="paint0_linear_0_1" x1="80.7354" y1="39.9999" x2="80.7354" y2="113.5" gradientUnits="userSpaceOnUse">
<stop stop-color="#065F46"/>
<stop offset="1" stop-color="#10B981"/>
</linearGradient>
</defs>
</svg>
