<svg width="871" height="190" viewBox="0 0 871 190" fill="none" xmlns="http://www.w3.org/2000/svg">
<path d="M32.1453 7.16549V140.975H0.768555V7.16549H32.1453Z" fill="white"/>
<path d="M105.649 37.4871C117.637 37.4871 127.179 41.4015 134.274 49.2304C141.491 56.937 145.099 67.5794 145.099 81.1576V140.975H113.906V85.3779C113.906 78.5276 112.132 73.2064 108.585 69.4143C105.038 65.6221 100.267 63.7261 94.2728 63.7261C88.2788 63.7261 83.5081 65.6221 79.9606 69.4143C76.4131 73.2064 74.6394 78.5276 74.6394 85.3779V140.975H43.2627V38.588H74.6394V52.1662C77.8199 47.6402 82.1013 44.0927 87.4837 41.5238C92.866 38.8327 98.9212 37.4871 105.649 37.4871Z" fill="white"/>
<path d="M151.49 89.5981C151.49 79.0781 153.447 69.8424 157.362 61.8912C161.398 53.94 166.842 47.8237 173.692 43.5422C180.543 39.2608 188.188 37.1201 196.629 37.1201C203.356 37.1201 209.473 38.5268 214.977 41.3403C220.604 44.1539 225.008 47.946 228.189 52.7167V0.19288H259.565V140.975H228.189V126.296C225.253 131.189 221.033 135.104 215.528 138.039C210.146 140.975 203.846 142.443 196.629 142.443C188.188 142.443 180.543 140.302 173.692 136.021C166.842 131.617 161.398 125.44 157.362 117.489C153.447 109.415 151.49 100.118 151.49 89.5981ZM228.189 89.7816C228.189 81.9527 225.987 75.7752 221.583 71.2492C217.302 66.7231 212.042 64.46 205.803 64.46C199.564 64.46 194.243 66.7231 189.839 71.2492C185.558 75.6529 183.417 81.7692 183.417 89.5981C183.417 97.427 185.558 103.666 189.839 108.314C194.243 112.84 199.564 115.103 205.803 115.103C212.042 115.103 217.302 112.84 221.583 108.314C225.987 103.788 228.189 97.6105 228.189 89.7816Z" fill="white"/>
<path d="M286.424 33.9456C280.92 33.9456 276.393 32.3554 272.846 29.1749C269.421 25.8721 267.708 21.8353 267.708 17.0646C267.708 12.1715 269.421 8.13471 272.846 4.95422C276.393 1.65141 280.92 0 286.424 0C291.807 0 296.21 1.65141 299.635 4.95422C303.183 8.13471 304.957 12.1715 304.957 17.0646C304.957 21.8353 303.183 25.8721 299.635 29.1749C296.21 32.3554 291.807 33.9456 286.424 33.9456ZM302.021 42.588V140.975H270.644V42.588H302.021Z" fill="white"/>
<path d="M410.877 88.1302C410.877 91.066 410.694 94.1242 410.327 97.3047H339.316C339.805 103.666 341.824 108.559 345.371 111.984C349.041 115.287 353.506 116.938 358.766 116.938C366.595 116.938 372.038 113.635 375.097 107.03H408.492C406.779 113.758 403.66 119.813 399.134 125.195C394.73 130.577 389.164 134.798 382.436 137.856C375.708 140.914 368.185 142.443 359.867 142.443C349.836 142.443 340.906 140.302 333.077 136.021C325.249 131.74 319.132 125.623 314.729 117.672C310.325 109.721 308.123 100.424 308.123 89.7816C308.123 79.1392 310.264 69.8424 314.545 61.8912C318.949 53.94 325.065 47.8237 332.894 43.5422C340.723 39.2608 349.714 37.1201 359.867 37.1201C369.775 37.1201 378.583 39.1996 386.289 43.3587C393.996 47.5178 399.99 53.4507 404.271 61.1572C408.675 68.8638 410.877 77.8548 410.877 88.1302ZM378.766 79.8732C378.766 74.4908 376.932 70.2094 373.262 67.0289C369.592 63.8484 365.005 62.2582 359.5 62.2582C354.24 62.2582 349.775 63.7873 346.105 66.8454C342.558 69.9036 340.356 74.2462 339.5 79.8732H378.766Z" fill="white"/>
<path d="M448.409 116.755H489.511V140.975H417.032V7.16549H448.409V116.755Z" fill="white"/>
<path d="M561.97 126.663C559.279 131.434 554.814 135.348 548.575 138.406C542.336 141.465 535.67 142.994 528.575 142.994C522.336 142.994 516.648 141.77 511.51 139.324C506.495 136.755 502.519 133.208 499.583 128.681C496.648 124.155 495.18 118.895 495.18 112.901C495.18 103.482 498.849 95.8368 506.189 89.9651C513.529 83.9711 524.477 80.9741 539.034 80.9741H561.97C561.725 75.3471 560.135 70.9433 557.199 67.7629C554.386 64.46 550.471 62.8086 545.456 62.8086C540.93 62.8086 537.199 63.9707 534.263 66.2949C531.327 68.6191 529.37 71.7996 528.391 75.8364H497.015C498.482 68.3745 501.418 61.7077 505.822 55.836C510.226 49.9644 515.853 45.3771 522.703 42.0743C529.676 38.6492 537.443 36.9366 546.006 36.9366C555.181 36.9366 563.377 38.7103 570.594 42.2578C577.811 45.8053 583.438 50.943 587.475 57.6709C591.512 64.2766 593.53 71.9831 593.53 80.7906V140.975H561.97V126.663ZM539.584 119.323C543.254 119.323 546.801 118.528 550.227 116.938C553.652 115.226 556.404 112.84 558.484 109.782C560.685 106.602 561.786 102.993 561.786 98.9561V97.6717H542.336C537.199 97.6717 533.345 98.7115 530.777 100.791C528.33 102.748 527.107 105.378 527.107 108.681C527.107 111.984 528.208 114.614 530.41 116.571C532.612 118.406 535.67 119.323 539.584 119.323Z" fill="white"/>
<path d="M704.354 38.588L640.132 189.6H606.37L629.857 137.489L588.205 38.588H623.251L646.921 102.626L670.408 38.588H704.354Z" fill="white"/>
<path d="M799.371 88.1302C799.371 91.066 799.188 94.1242 798.821 97.3047H727.81C728.299 103.666 730.318 108.559 733.865 111.984C737.535 115.287 742 116.938 747.26 116.938C755.089 116.938 760.532 113.635 763.591 107.03H796.986C795.273 113.758 792.154 119.813 787.628 125.195C783.224 130.577 777.658 134.798 770.93 137.856C764.202 140.914 756.679 142.443 748.361 142.443C738.33 142.443 729.4 140.302 721.571 136.021C713.743 131.74 707.626 125.623 703.222 117.672C698.819 109.721 696.617 100.424 696.617 89.7816C696.617 79.1392 698.758 69.8424 703.039 61.8912C707.443 53.94 713.559 47.8237 721.388 43.5422C729.217 39.2608 738.208 37.1201 748.361 37.1201C758.269 37.1201 767.077 39.1996 774.783 43.3587C782.49 47.5178 788.484 53.4507 792.765 61.1572C797.169 68.8638 799.371 77.8548 799.371 88.1302ZM767.26 79.8732C767.26 74.4908 765.426 70.2094 761.756 67.0289C758.086 63.8484 753.499 62.2582 747.994 62.2582C742.734 62.2582 738.269 63.7873 734.599 66.8454C731.052 69.9036 728.85 74.2462 727.994 79.8732H767.26Z" fill="white"/>
<path d="M838.126 55.6525C841.796 50.0255 846.383 45.6218 851.888 42.4413C857.393 39.1385 863.509 37.4871 870.237 37.4871V70.6987H861.613C853.784 70.6987 847.912 72.4113 843.998 75.8364C840.083 79.1392 838.126 85.0109 838.126 93.4514V140.975H806.749V38.588H838.126V55.6525Z" fill="white"/>
</svg>
