<svg width="870" height="190" viewBox="0 0 870 190" fill="none" xmlns="http://www.w3.org/2000/svg">
<path d="M31.3767 7.16549V140.975H0V7.16549H31.3767Z" fill="#1E293B"/>
<path d="M104.881 37.4871C116.869 37.4871 126.41 41.4015 133.505 49.2304C140.722 56.937 144.331 67.5794 144.331 81.1576V140.975H113.138V85.3779C113.138 78.5276 111.364 73.2064 107.816 69.4143C104.269 65.6221 99.4982 63.7261 93.5042 63.7261C87.5102 63.7261 82.7395 65.6221 79.192 69.4143C75.6446 73.2064 73.8709 78.5276 73.8709 85.3779V140.975H42.4941V38.588H73.8709V52.1662C77.0513 47.6402 81.3328 44.0927 86.7151 41.5238C92.0975 38.8327 98.1526 37.4871 104.881 37.4871Z" fill="#1E293B"/>
<path d="M150.721 89.5981C150.721 79.0781 152.679 69.8424 156.593 61.8912C160.63 53.94 166.073 47.8237 172.924 43.5422C179.774 39.2608 187.419 37.1201 195.86 37.1201C202.588 37.1201 208.704 38.5268 214.209 41.3403C219.836 44.1539 224.24 47.946 227.42 52.7167V0.19288H258.797V140.975H227.42V126.296C224.484 131.189 220.264 135.104 214.759 138.039C209.377 140.975 203.077 142.443 195.86 142.443C187.419 142.443 179.774 140.302 172.924 136.021C166.073 131.617 160.63 125.44 156.593 117.489C152.679 109.415 150.721 100.118 150.721 89.5981ZM227.42 89.7816C227.42 81.9527 225.218 75.7752 220.815 71.2492C216.533 66.7231 211.273 64.46 205.034 64.46C198.796 64.46 193.475 66.7231 189.071 71.2492C184.789 75.6529 182.649 81.7692 182.649 89.5981C182.649 97.427 184.789 103.666 189.071 108.314C193.475 112.84 198.796 115.103 205.034 115.103C211.273 115.103 216.533 112.84 220.815 108.314C225.218 103.788 227.42 97.6105 227.42 89.7816Z" fill="#1E293B"/>
<path d="M285.656 33.9456C280.151 33.9456 275.625 32.3554 272.077 29.1749C268.652 25.8721 266.94 21.8353 266.94 17.0646C266.94 12.1715 268.652 8.13471 272.077 4.95422C275.625 1.65141 280.151 0 285.656 0C291.038 0 295.442 1.65141 298.867 4.95422C302.414 8.13471 304.188 12.1715 304.188 17.0646C304.188 21.8353 302.414 25.8721 298.867 29.1749C295.442 32.3554 291.038 33.9456 285.656 33.9456ZM301.252 42.588V140.975H269.876V42.588H301.252Z" fill="#1E293B"/>
<path d="M410.109 88.1302C410.109 91.066 409.925 94.1242 409.558 97.3047H338.548C339.037 103.666 341.055 108.559 344.603 111.984C348.273 115.287 352.737 116.938 357.997 116.938C365.826 116.938 371.27 113.635 374.328 107.03H407.723C406.011 113.758 402.891 119.813 398.365 125.195C393.961 130.577 388.396 134.798 381.668 137.856C374.94 140.914 367.417 142.443 359.098 142.443C349.068 142.443 340.138 140.302 332.309 136.021C324.48 131.74 318.364 125.623 313.96 117.672C309.556 109.721 307.354 100.424 307.354 89.7816C307.354 79.1392 309.495 69.8424 313.776 61.8912C318.18 53.94 324.297 47.8237 332.125 43.5422C339.954 39.2608 348.945 37.1201 359.098 37.1201C369.007 37.1201 377.814 39.1996 385.521 43.3587C393.228 47.5178 399.221 53.4507 403.503 61.1572C407.907 68.8638 410.109 77.8548 410.109 88.1302ZM377.998 79.8732C377.998 74.4908 376.163 70.2094 372.493 67.0289C368.823 63.8484 364.236 62.2582 358.731 62.2582C353.471 62.2582 349.006 63.7873 345.337 66.8454C341.789 69.9036 339.587 74.2462 338.731 79.8732H377.998Z" fill="#1E293B"/>
<path d="M447.64 116.755H488.742V140.975H416.264V7.16549H447.64V116.755Z" fill="#1E293B"/>
<path d="M561.201 126.663C558.51 131.434 554.045 135.348 547.807 138.406C541.568 141.465 534.901 142.994 527.806 142.994C521.568 142.994 515.879 141.77 510.742 139.324C505.726 136.755 501.751 133.208 498.815 128.681C495.879 124.155 494.411 118.895 494.411 112.901C494.411 103.482 498.081 95.8368 505.42 89.9651C512.76 83.9711 523.708 80.9741 538.265 80.9741H561.201C560.957 75.3471 559.366 70.9433 556.431 67.7629C553.617 64.46 549.703 62.8086 544.687 62.8086C540.161 62.8086 536.43 63.9707 533.494 66.2949C530.559 68.6191 528.601 71.7996 527.623 75.8364H496.246C497.714 68.3745 500.65 61.7077 505.053 55.836C509.457 49.9644 515.084 45.3771 521.935 42.0743C528.907 38.6492 536.675 36.9366 545.238 36.9366C554.412 36.9366 562.608 38.7103 569.825 42.2578C577.043 45.8053 582.67 50.943 586.706 57.6709C590.743 64.2766 592.762 71.9831 592.762 80.7906V140.975H561.201V126.663ZM538.816 119.323C542.485 119.323 546.033 118.528 549.458 116.938C552.883 115.226 555.635 112.84 557.715 109.782C559.917 106.602 561.018 102.993 561.018 98.9561V97.6717H541.568C536.43 97.6717 532.577 98.7115 530.008 100.791C527.562 102.748 526.338 105.378 526.338 108.681C526.338 111.984 527.439 114.614 529.641 116.571C531.843 118.406 534.901 119.323 538.816 119.323Z" fill="#1E293B"/>
<path d="M703.585 38.588L639.364 189.6H605.602L629.088 137.489L587.436 38.588H622.483L646.153 102.626L669.639 38.588H703.585Z" fill="#1E293B"/>
<path d="M798.603 88.1302C798.603 91.066 798.419 94.1242 798.052 97.3047H727.042C727.531 103.666 729.549 108.559 733.097 111.984C736.767 115.287 741.231 116.938 746.491 116.938C754.32 116.938 759.764 113.635 762.822 107.03H796.217C794.505 113.758 791.385 119.813 786.859 125.195C782.456 130.577 776.89 134.798 770.162 137.856C763.434 140.914 755.911 142.443 747.592 142.443C737.562 142.443 728.632 140.302 720.803 136.021C712.974 131.74 706.858 125.623 702.454 117.672C698.05 109.721 695.848 100.424 695.848 89.7816C695.848 79.1392 697.989 69.8424 702.271 61.8912C706.674 53.94 712.791 47.8237 720.619 43.5422C728.448 39.2608 737.439 37.1201 747.592 37.1201C757.501 37.1201 766.308 39.1996 774.015 43.3587C781.721 47.5178 787.715 53.4507 791.997 61.1572C796.401 68.8638 798.603 77.8548 798.603 88.1302ZM766.492 79.8732C766.492 74.4908 764.657 70.2094 760.987 67.0289C757.317 63.8484 752.73 62.2582 747.225 62.2582C741.965 62.2582 737.5 63.7873 733.831 66.8454C730.283 69.9036 728.081 74.2462 727.225 79.8732H766.492Z" fill="#1E293B"/>
<path d="M837.358 55.6525C841.027 50.0255 845.615 45.6218 851.119 42.4413C856.624 39.1385 862.74 37.4871 869.468 37.4871V70.6987H860.844C853.015 70.6987 847.144 72.4113 843.229 75.8364C839.315 79.1392 837.358 85.0109 837.358 93.4514V140.975H805.981V38.588H837.358V55.6525Z" fill="#1E293B"/>
</svg>
